<svg width="700" height="400" xmlns="http://www.w3.org/2000/svg">
  <rect width="700" height="400" fill="#f8f9fa" stroke="#e9ecef" stroke-width="2" rx="5"/>
  
  <!-- Core AGI -->
  <rect x="250" y="50" width="200" height="60" fill="#4F46E5" rx="5"/>
  <text x="350" y="85" font-family="Arial" font-size="18" fill="white" text-anchor="middle">Core AGI System</text>
  
  <!-- Components -->
  <rect x="50" y="150" width="150" height="50" fill="#10B981" rx="5"/>
  <text x="125" y="180" font-family="Arial" font-size="14" fill="white" text-anchor="middle">Ollama Wrapper</text>
  
  <rect x="225" y="150" width="150" height="50" fill="#3B82F6" rx="5"/>
  <text x="300" y="180" font-family="Arial" font-size="14" fill="white" text-anchor="middle">Performance</text>
  
  <rect x="400" y="150" width="150" height="50" fill="#8B5CF6" rx="5"/>
  <text x="475" y="180" font-family="Arial" font-size="14" fill="white" text-anchor="middle">Learning</text>
  
  <rect x="575" y="150" width="150" height="50" fill="#EC4899" rx="5"/>
  <text x="650" y="180" font-family="Arial" font-size="14" fill="white" text-anchor="middle">Autonomous</text>
  
  <!-- Connections -->
  <line x1="350" y1="110" x2="125" y2="150" stroke="#6B7280" stroke-width="2"/>
  <line x1="350" y1="110" x2="300" y2="150" stroke="#6B7280" stroke-width="2"/>
  <line x1="350" y1="110" x2="475" y2="150" stroke="#6B7280" stroke-width="2"/>
  <line x1="350" y1="110" x2="650" y2="150" stroke="#6B7280" stroke-width="2"/>
  
  <!-- Database -->
  <ellipse cx="350" cy="300" rx="80" ry="40" fill="#F59E0B"/>
  <text x="350" y="305" font-family="Arial" font-size="14" fill="white" text-anchor="middle">SQLite DB</text>
  
  <!-- Connection to DB -->
  <line x1="350" y1="200" x2="350" y2="260" stroke="#6B7280" stroke-width="2"/>
</svg>